<?xml version="1.0" encoding="UTF-8" standalone="no"?>
<svg
   xmlns:dc="http://purl.org/dc/elements/1.1/"
   xmlns:cc="http://creativecommons.org/ns#"
   xmlns:rdf="http://www.w3.org/1999/02/22-rdf-syntax-ns#"
   xmlns:svg="http://www.w3.org/2000/svg"
   xmlns="http://www.w3.org/2000/svg"
   xmlns:sodipodi="http://sodipodi.sourceforge.net/DTD/sodipodi-0.dtd"
   xmlns:inkscape="http://www.inkscape.org/namespaces/inkscape"
   version="1.1"
   id="Layer_1"
   x="0px"
   y="0px"
   width="98.794678"
   height="55.616497"
   viewBox="0 0 98.794678 55.616497"
   enable-background="new 0 0 584 149"
   xml:space="preserve"
   inkscape:version="0.92.4 (5da689c313, 2019-01-14)"
   sodipodi:docname="Forza_Games_logo.svg"><title
     id="title833">Forza Games logo</title><metadata
     id="metadata8"><rdf:RDF><cc:Work
         rdf:about=""><dc:format>image/svg+xml</dc:format><dc:type
           rdf:resource="http://purl.org/dc/dcmitype/StillImage" /><dc:title>Forza Games logo</dc:title><cc:license
           rdf:resource="http://scripts.sil.org/OFL" /></cc:Work><cc:License
         rdf:about="http://scripts.sil.org/OFL"><cc:permits
           rdf:resource="http://scripts.sil.org/pub/OFL/Reproduction" /><cc:permits
           rdf:resource="http://scripts.sil.org/pub/OFL/Distribution" /><cc:permits
           rdf:resource="http://scripts.sil.org/pub/OFL/Embedding" /><cc:permits
           rdf:resource="http://scripts.sil.org/pub/OFL/DerivativeWorks" /><cc:requires
           rdf:resource="http://scripts.sil.org/pub/OFL/Notice" /><cc:requires
           rdf:resource="http://scripts.sil.org/pub/OFL/Attribution" /><cc:requires
           rdf:resource="http://scripts.sil.org/pub/OFL/ShareAlike" /><cc:requires
           rdf:resource="http://scripts.sil.org/pub/OFL/DerivativeRenaming" /><cc:requires
           rdf:resource="http://scripts.sil.org/pub/OFL/BundlingWhenSelling" /></cc:License></rdf:RDF></metadata><defs
     id="defs6"><pattern
       y="0"
       x="0"
       height="6"
       width="6"
       patternUnits="userSpaceOnUse"
       id="EMFhbasepattern" /><pattern
       y="0"
       x="0"
       height="6"
       width="6"
       patternUnits="userSpaceOnUse"
       id="EMFhbasepattern-7" /></defs><sodipodi:namedview
     pagecolor="#ffffff"
     bordercolor="#666666"
     borderopacity="1"
     objecttolerance="1"
     gridtolerance="1"
     guidetolerance="1"
     inkscape:pageopacity="0"
     inkscape:pageshadow="2"
     inkscape:window-width="1920"
     inkscape:window-height="1057"
     id="namedview4"
     showgrid="false"
     inkscape:showpageshadow="false"
     inkscape:zoom="1"
     inkscape:cx="47.989655"
     inkscape:cy="19.480499"
     inkscape:window-x="-8"
     inkscape:window-y="1072"
     inkscape:window-maximized="1"
     inkscape:current-layer="Layer_1"><inkscape:grid
       type="xygrid"
       id="grid4166"
       originx="-0.84046068"
       originy="-0.746877" /></sodipodi:namedview><g
     id="layer103-2"
     transform="matrix(0.79031136,0,0,1.094549,-7914.4634,-859.7916)"
     style="display:inline;fill:#00ff00;fill-opacity:1;stroke:none" /><g
     transform="matrix(0.14420966,0,0,0.14420966,-18.095421,-49.188428)"
     id="#f1f0f0ff" /><path
     id="path823"
     d="m 46.604447,0 h -5.356556 c -3.9209,0.180965 -6.792207,1.604554 -9.108557,3.486587 -1.749325,1.435654 -3.221171,3.197045 -4.536183,5.067013 l -1.182303,1.773455 H 73.580257 C 76.355049,10.206411 78.454241,9.639389 80.372462,8.577729 83.472995,6.888725 85.753148,4.403476 87.695505,1.59249 L 88.757167,0 c -0.470509,0 -42.15272,0 -42.15272,0 z m -34.877931,12.43831 -0.325739,0.229222 c 0,0.120643 0.08445,0.205093 0.325739,0.241286 l 28.218431,4.620633 -6.659502,10.001314 10.206409,-1.556296 8.999979,-13.536159 z m 41.537432,0 -0.03619,0.06031 0.04825,0.03619 c 0.458445,0.217157 1.218496,0.916888 -0.217158,3.0764 l -6.599179,9.904805 10.182282,-1.5563 7.660839,-11.521419 z m 11.810965,0 -0.02412,0.06031 0.04825,0.03619 c 0.458445,0.217157 1.218496,0.916888 -0.229221,3.0764 l -5.211785,7.853869 -0.03619,0.03619 6.864595,-1.049596 c 0.723859,-0.132709 1.375333,-0.325738 1.95442,-0.63941 1.918225,-1.061659 3.209107,-2.642085 4.391409,-4.415539 l 3.29356,-4.958433 z m -42.092394,4.39141 -12.341798,18.554921 16.407473,-2.509382 9.14475,-13.741255 z m 2.617956,23.0911 c -0.156835,0 -0.301607,0 -0.458442,0 -4.053612,0.132704 -8.3847,2.581759 -8.3847,7.974512 0,2.70241 1.097852,4.125996 1.544232,4.656823 0.591151,0.760056 2.37667,3.064342 7.081753,3.064342 5.670227,0 8.698371,-3.53485 8.698371,-7.817683 0,-4.825727 -3.836453,-7.841801 -8.481214,-7.877994 z m 14.45305,0.482576 v 14.670199 h 3.257364 v -5.33242 H 48.0401 l 3.788195,5.33242 h 3.908839 l -4.005353,-5.51339 c 0.820374,-0.193028 1.580425,-0.591152 2.243962,-1.363267 0.747989,-0.868625 1.109917,-1.978546 1.109917,-2.823046 0.01207,-0.168903 0,-0.349866 0,-0.591153 0,-0.8445 -0.361928,-1.954421 -1.109917,-2.823046 -1.218494,-1.411528 -2.7386,-1.556297 -4.403474,-1.556297 z m 22.065632,0 v 2.871305 h 9.193009 l -9.928934,9.193002 v 2.605892 H 76.125827 V 52.20229 H 66.124509 L 76.125827,42.936895 V 40.403396 Z M 0,40.403396 V 55.073603 H 3.0402081 V 49.717042 H 8.8913958 L 10.351181,46.881929 H 3.0402081 V 43.28676 h 9.1688759 l 1.495978,-2.883364 z m 88.153955,0 -6.924919,14.670207 h 3.583094 l 1.17024,-2.485248 h 8.046899 l 1.121988,2.485248 h 3.643419 L 91.809442,40.403396 Z M 25.52809,42.828318 c 2.919563,0.0241 5.332427,1.930287 5.332427,4.958436 0,2.690344 -1.894096,4.910171 -5.465135,4.910171 -2.955756,0 -4.077739,-1.447713 -4.451732,-1.918221 -0.27748,-0.337799 -0.965144,-1.230558 -0.965144,-2.931631 0,-3.390066 2.714471,-4.934303 5.272105,-5.018755 0.08445,0 0.180964,0 0.277479,0 z m 17.782799,0.446383 h 5.694357 c 1.447717,0 2.050934,0.361932 2.328412,0.711797 0.241288,0.349858 0.373995,0.844499 0.373995,1.134039 v 0.120644 l -0.01207,0.08446 c -0.01207,0.09652 -0.02412,0.253354 -0.06032,0.337798 l -0.02412,0.07239 c -0.193029,0.554954 -0.663536,0.832434 -1.158174,0.98927 -0.3378,0.08445 -0.772116,0.14477 -1.339138,0.156836 h -5.802937 z m 46.676835,0.772115 2.738602,5.670226 h -5.392745 z"
     style="fill:#000000;fill-opacity:1;fill-rule:nonzero;stroke:none;stroke-width:0.15080506"
     inkscape:connector-curvature="0" /></svg>